<?xml version="1.0" standalone="no"?>
<!DOCTYPE svg PUBLIC "-//W3C//DTD SVG 1.1//EN" "http://www.w3.org/Graphics/SVG/1.1/DTD/svg11.dtd" >
<svg xmlns="http://www.w3.org/2000/svg">
<metadata></metadata>
<defs>
<font id="BoeticherRegularRegular" horiz-adv-x="710" >
<font-face units-per-em="2048" ascent="1536" descent="-512" />
<missing-glyph horiz-adv-x="1024" />
<glyph horiz-adv-x="0" />
<glyph horiz-adv-x="2048" />
<glyph unicode=" "  horiz-adv-x="1024" />
<glyph unicode="&#x09;" horiz-adv-x="1024" />
<glyph unicode="&#xa0;" horiz-adv-x="1024" />
<glyph unicode="A" horiz-adv-x="800" d="M51 61q0 24 16 41t39 17q16 0 29 10v6l86 322h-2q-23 0 -39 16t-16 41q0 23 16 39t39 16h31l86 320q-13 20 -37 20q-23 0 -39 16.5t-16 39.5q0 25 16 41t39 16q55 0 102 -37q43 37 101 37q23 0 39 -16t16 -41q0 -23 -16 -39.5t-39 -16.5q-24 0 -37 -20l86 -320h31 q23 0 39 -16t16 -39q0 -25 -16 -41t-39 -16h-2l86 -322v-6q13 -10 28 -10q23 0 39.5 -17.5t16.5 -40.5t-16.5 -39t-39.5 -16q-57 0 -100 37q-47 -37 -100 -37q-25 0 -41.5 16t-16.5 39q0 24 17 41t41 17q19 0 31 13t12 32q0 1 1 4t1 4l-76 285h-125l-76 -283q0 -2 1 -5.5 t1 -4.5q0 -19 13 -32t32 -13q23 0 39.5 -17.5t16.5 -40.5t-16.5 -39t-39.5 -16q-57 0 -100 37q-47 -37 -103 -37q-23 0 -39 16t-16 39zM367 569h67l-33 127z" />
<glyph unicode="B" d="M51 61q0 24 16 41t39 17q19 0 32.5 13t13.5 32v295h-27q-25 0 -41 16t-16 39q0 24 16.5 40.5t40.5 16.5h27v215v78q0 19 -13.5 32t-32.5 13q-23 0 -39 16.5t-16 39.5q0 25 16 41t39 16q82 0 130 -68q75 68 170 68q104 0 178.5 -75t74.5 -179v-47q0 -1 -1 -2t-1 -2l2 -4 q0 -120 -96 -199q96 -79 96 -197l-2 -4q0 -1 1 -3t1 -3v-47q0 -104 -74.5 -178t-178.5 -74q-98 0 -170 66q-48 -68 -130 -68q-23 0 -39 16t-16 39zM264 260q0 -58 41.5 -99.5t100.5 -41.5q58 0 99.5 41.5t41.5 99.5v47v6v4q0 59 -41.5 100.5t-99.5 41.5h-142v-199zM264 571 h142q58 0 99.5 41.5t41.5 100.5v4v4v47q0 58 -41.5 99.5t-99.5 41.5q-59 0 -100.5 -41.5t-41.5 -99.5v-47v-150z" />
<glyph unicode="C" horiz-adv-x="694" d="M51 514q0 23 16 39t39 16h29v197q0 104 75 179t179 75t179 -75t75 -179q0 -23 -17 -40t-40 -17t-39.5 17t-16.5 40q0 58 -41 99.5t-100 41.5t-100 -41.5t-41 -99.5v-197h28q23 0 39.5 -16t16.5 -39t-16.5 -40t-39.5 -17h-28v-195q0 -58 41 -99.5t100 -41.5t100 41.5 t41 99.5q0 23 16.5 39t39.5 16t40 -16t17 -39q0 -104 -75 -179t-179 -75t-179 75t-75 179v195h-29q-23 0 -39 17t-16 40z" />
<glyph unicode="D" d="M51 61q0 25 16 41.5t39 16.5q19 0 32.5 13t13.5 32v125v2v166h-27q-25 0 -41 16t-16 39q0 25 16 41t41 16h27v168v127q0 19 -13.5 32t-32.5 13q-23 0 -39 16.5t-16 39.5t16 40t39 17q85 0 132 -70q72 66 168 66q104 0 178.5 -74t74.5 -180v-504q0 -104 -74.5 -178 t-178.5 -74q-98 0 -170 66q-45 -68 -130 -68q-23 0 -39 16t-16 39zM264 260q0 -58 41.5 -98.5t100.5 -40.5t100 40.5t41 98.5v504q0 58 -41.5 99.5t-99.5 41.5q-59 0 -100.5 -41.5t-41.5 -99.5v-195h29q23 0 39 -16t16 -41q0 -23 -16 -39t-39 -16h-29v-197z" />
<glyph unicode="E" d="M51 61q0 25 16 41.5t39 16.5q19 0 32.5 13t13.5 32v125v2v166h-27q-25 0 -41 16t-16 39q0 25 16 41t41 16h27v168v127q0 19 -13.5 32t-32.5 13q-23 0 -39 16.5t-16 39.5t16 40t39 17q85 0 132 -70q72 66 168 66q104 0 178.5 -74t74.5 -180q0 -23 -16 -39t-41 -16 q-23 0 -39 16t-16 39q0 58 -41.5 99.5t-99.5 41.5q-59 0 -100.5 -41.5t-41.5 -99.5v-195h234q24 0 40.5 -16.5t16.5 -40.5q0 -23 -17 -39t-40 -16h-234v-197q0 -58 41.5 -98.5t100.5 -40.5t100 40.5t41 98.5q0 25 16 41t39 16q25 0 41 -16t16 -41q0 -104 -74.5 -178 t-178.5 -74q-98 0 -170 66q-45 -68 -130 -68q-23 0 -39 16t-16 39z" />
<glyph unicode="F" d="M51 61q0 25 16.5 41.5t41.5 16.5q17 0 30 13t13 32v125v2v166h-27q-25 0 -41 16t-16 39q0 25 16 41t41 16h27v168v127q0 19 -13.5 32t-32.5 13q-23 0 -39 16.5t-16 39.5t16 40t39 17q85 0 132 -70q72 66 168 66q104 0 178.5 -74t74.5 -180q0 -23 -16 -39t-41 -16 q-23 0 -39 16t-16 39q0 58 -41.5 99.5t-99.5 41.5q-59 0 -100.5 -41.5t-41.5 -99.5v-195h234q24 0 40.5 -16.5t16.5 -40.5q0 -23 -17 -39t-40 -16h-234v-197v-96q0 -19 13 -32t32 -13q23 0 39.5 -16.5t16.5 -41.5q0 -23 -16.5 -39t-39.5 -16q-57 0 -100 37q-47 -37 -100 -37 q-25 0 -41.5 16t-16.5 39z" />
<glyph unicode="G" d="M51 262v504q0 104 75 179t179 75t179 -75t75 -179q0 -23 -17 -40t-40 -17t-39.5 17t-16.5 40q0 58 -41 99.5t-100 41.5t-100 -41.5t-41 -99.5v-504q0 -58 41 -99.5t100 -41.5t100 41.5t41 99.5q0 5 3 8q-3 6 -3 11q0 19 -13 32t-32 13q-23 0 -40 16t-17 39 q0 24 16.5 40.5t40.5 16.5q58 0 101 -37q43 37 100 37q25 0 41 -16t16 -41q0 -23 -16 -39t-41 -16q-19 0 -31 -13t-12 -32q0 -2 -1 -5.5t-1 -5.5q0 -1 1 -4t1 -4q0 -104 -75 -179t-179 -75t-179 75t-75 179z" />
<glyph unicode="H" horiz-adv-x="735" d="M51 61q0 25 16 41.5t39 16.5q19 0 32.5 13t13.5 32v293h-29q-24 0 -40.5 16.5t-16.5 40.5q0 23 16 39t41 16h29v295q0 19 -13.5 32t-32.5 13q-23 0 -39 16.5t-16 39.5t16 40t39 17q56 0 103 -37q43 37 100 37q23 0 39.5 -17t16.5 -40t-16.5 -39.5t-39.5 -16.5 q-19 0 -32 -13t-13 -32v-295h207v295q0 19 -13 32t-32 13q-23 0 -39 16.5t-16 39.5t16 40t39 17q57 0 100 -37q47 37 101 37q24 0 40.5 -16.5t16.5 -40.5q0 -23 -16 -39.5t-41 -16.5q-19 0 -31 -13t-12 -32v-295h28q23 0 39.5 -16t16.5 -39t-16.5 -40t-39.5 -17h-28v-293 q0 -19 12 -32t31 -13q25 0 41 -16.5t16 -41.5q0 -23 -16 -39t-41 -16q-54 0 -101 37q-43 -37 -100 -37q-23 0 -39 16t-16 39q0 25 16 41.5t39 16.5q19 0 32 13t13 32v293h-207v-293q0 -19 13 -32t32 -13q23 0 39.5 -16.5t16.5 -41.5q0 -23 -16.5 -39t-39.5 -16 q-57 0 -100 37q-47 -37 -103 -37q-23 0 -39 16t-16 39z" />
<glyph unicode="I" horiz-adv-x="415" d="M51 61q0 25 16 41.5t39 16.5q19 0 32.5 13t13.5 32v293h-27q-25 0 -41 16t-16 39q0 25 16 41t41 16h27v295q0 19 -13.5 32t-32.5 13q-23 0 -39 16.5t-16 39.5t16 40t39 17q56 0 103 -37q43 37 100 37q23 0 39.5 -17t16.5 -40t-16.5 -39.5t-39.5 -16.5q-19 0 -32 -13 t-13 -32v-295h29q23 0 39 -16t16 -41q0 -23 -16 -39t-39 -16h-29v-293q0 -19 13 -32t32 -13q23 0 39.5 -16.5t16.5 -41.5q0 -23 -16.5 -39t-39.5 -16q-57 0 -100 37q-47 -37 -103 -37q-23 0 -39 16t-16 39z" />
<glyph unicode="J" horiz-adv-x="811" d="M51 377q0 23 16 39t39 16q56 0 103 -37q43 37 100 37q23 0 39.5 -16t16.5 -39q0 -25 -16.5 -41.5t-39.5 -16.5q-19 0 -32 -13t-13 -32q0 -4 -2 -6q2 -2 2 -8q0 -58 41.5 -99.5t100.5 -41.5q58 0 99.5 41.5t41.5 99.5v195h-29q-23 0 -39 17t-16 40t16 39t39 16h29v297 q0 19 -13 31t-32 12q-23 0 -39.5 17.5t-16.5 40.5t16.5 39t39.5 16q60 0 100 -37q43 37 103 37q23 0 39 -16t16 -39q0 -24 -16 -41t-39 -17q-19 0 -32.5 -12.5t-13.5 -30.5v-297h27q25 0 41 -16t16 -39q0 -24 -16.5 -40.5t-40.5 -16.5h-27v-215q0 -9 -4 -21 q-15 -91 -85.5 -152t-163.5 -61q-104 0 -179 75t-75 179q0 2 1 4.5t1 3.5t-1 3t-1 3q0 19 -13.5 32t-32.5 13q-23 0 -39 16.5t-16 41.5z" />
<glyph unicode="K" horiz-adv-x="763" d="M51 61q0 25 16 41.5t39 16.5q19 0 32.5 13t13.5 32v293h-27q-25 0 -41 16t-16 39q0 25 16 41t41 16h27v295q0 19 -13.5 32t-32.5 13q-23 0 -39 16.5t-16 39.5t16 40t39 17q56 0 103 -37q43 37 100 37q23 0 39.5 -17t16.5 -40t-16.5 -39.5t-39.5 -16.5q-19 0 -32 -13 t-13 -32v-289l221 320q-14 14 -30 14q-23 0 -40.5 16.5t-17.5 39.5t17.5 40t40.5 17q53 0 100 -37q47 37 100 37q23 0 40.5 -17t17.5 -40t-17.5 -39.5t-40.5 -16.5q-21 0 -34 -16v-2l-224 -322h37q23 0 39 -16t16 -41q0 -23 -16 -39t-39 -16h-35l222 -320q13 -16 34 -16 q23 0 40.5 -17.5t17.5 -40.5t-17 -39t-41 -16q-57 0 -100 37q-43 -37 -100 -37q-24 0 -41 16t-17 39t17.5 40.5t40.5 17.5q16 0 30 14l-221 320v-291q0 -19 13 -32t32 -13q23 0 39.5 -16.5t16.5 -41.5q0 -23 -16.5 -39t-39.5 -16q-57 0 -100 37q-47 -37 -103 -37 q-23 0 -39 16t-16 39z" />
<glyph unicode="L" horiz-adv-x="811" d="M51 61q0 24 16 41t39 17q19 0 32.5 13t13.5 32v78v215h-27q-25 0 -41 16t-16 41q0 23 16 39t41 16h27v295q0 19 -13.5 32t-32.5 13q-23 0 -39 16.5t-16 39.5q0 25 16 41t39 16q56 0 103 -37q43 37 100 37q23 0 39.5 -16t16.5 -41q0 -23 -16.5 -39.5t-39.5 -16.5 q-19 0 -32 -13t-13 -32v-295h29q23 0 39 -16t16 -39q0 -25 -16 -41t-39 -16h-29v-150v-45q0 -58 41.5 -99.5t100.5 -41.5q58 0 99.5 41.5t41.5 99.5q0 4 2 6q-2 4 -2 8q0 19 -13 32.5t-32 13.5q-23 0 -39.5 16t-16.5 39t16.5 40t39.5 17q57 0 100 -37q47 37 103 37 q23 0 39 -17t16 -40t-16 -39t-39 -16q-19 0 -32.5 -13.5t-13.5 -32.5q0 -1 -1 -3.5t-1 -4.5q0 -1 1 -3t1 -3q0 -104 -74.5 -179t-178.5 -75q-96 0 -168 66q-48 -68 -132 -68q-23 0 -39 16t-16 39z" />
<glyph unicode="M" horiz-adv-x="913" d="M51 61q0 25 16 41.5t39 16.5q19 0 32.5 13t13.5 32v293h-27q-25 0 -41 16t-16 39q0 25 16 41t41 16h27v295q0 19 -13.5 32t-32.5 13q-23 0 -39 16.5t-16 39.5t16 40t39 17q56 0 103 -37q43 37 100 37q23 0 39.5 -17t16.5 -40t-16.5 -39.5t-39.5 -16.5q-25 0 -39 -24 l185 -445l186 449q-13 20 -35 20q-24 0 -40.5 16.5t-16.5 39.5q0 24 16.5 40.5t40.5 16.5q54 0 101 -37q43 37 100 37q23 0 39 -17t16 -40t-16 -39.5t-39 -16.5q-19 0 -32 -13t-13 -32v-295h29q23 0 39 -16t16 -41q0 -23 -16 -39t-39 -16h-29v-293q0 -19 13 -32t32 -13 q23 0 39 -16.5t16 -41.5q0 -23 -16 -39t-39 -16q-57 0 -100 37q-47 -37 -101 -37q-25 0 -41 16t-16 39q0 25 16 41.5t41 16.5q19 0 31 13t12 32v450l-133 -319q14 -27 41 -27q23 0 39 -16t16 -39q0 -25 -16 -41t-39 -16q-55 0 -102 37q-43 -37 -101 -37q-23 0 -39 16t-16 41 q0 23 16 39t39 16q28 0 41 27l-131 311v-442q0 -19 13 -32t32 -13q23 0 39.5 -16.5t16.5 -41.5q0 -23 -16.5 -39t-39.5 -16q-57 0 -100 37q-47 -37 -103 -37q-23 0 -39 16t-16 39z" />
<glyph unicode="N" horiz-adv-x="759" d="M51 61q0 25 16 41.5t39 16.5q19 0 32.5 13t13.5 32v293h-46q-23 0 -39 16t-16 39q0 25 16 41t39 16h46v295q0 19 -13.5 32t-32.5 13q-23 0 -39 16.5t-16 39.5t16 40t39 17q56 0 103 -37q43 37 100 37q23 0 39.5 -17t16.5 -40t-16.5 -39.5t-39.5 -16.5q-25 0 -39 -24 l226 -541v520q0 19 -13 32t-32 13q-23 0 -39.5 16.5t-16.5 39.5t16.5 40t39.5 17q55 0 102 -37q43 37 100 37q23 0 39.5 -17t16.5 -40t-16.5 -39.5t-39.5 -16.5q-19 0 -32 -13t-13 -32v-295h45q23 0 39.5 -16.5t16.5 -40.5q0 -23 -16.5 -39t-39.5 -16h-45v-293q0 -19 13 -32 t32 -13q23 0 39.5 -16.5t16.5 -41.5q0 -23 -16.5 -39t-39.5 -16q-57 0 -100 37q-47 -37 -102 -37q-23 0 -39.5 16t-16.5 39q0 25 16.5 41.5t39.5 16.5q10 0 16 2l-203 485v-92v-2v-348q0 -19 13 -32t32 -13q23 0 39.5 -16.5t16.5 -41.5q0 -23 -16.5 -39t-39.5 -16 q-57 0 -100 37q-47 -37 -103 -37q-23 0 -39 16t-16 39z" />
<glyph unicode="O" horiz-adv-x="778" d="M51 514q0 23 16 39t39 16h29v197q0 104 75 179t179 75t179 -75t75 -179v-193h27q25 0 41 -16t16 -39q0 -25 -16 -41t-41 -16h-27v-199q0 -104 -75 -179t-179 -75t-179 75t-75 179v195h-29q-23 0 -39 17t-16 40zM248 262q0 -58 41 -99.5t100 -41.5t100 41.5t41 99.5v199 h-28q-24 0 -40 16.5t-16 40.5q0 23 16.5 39t39.5 16h28v193q0 58 -41 99.5t-100 41.5t-100 -41.5t-41 -99.5v-197h28q23 0 39.5 -16t16.5 -39t-16.5 -40t-39.5 -17h-28v-195z" />
<glyph unicode="P" d="M51 61q0 24 16 41t39 17q19 0 32.5 13t13.5 32v295h-27q-25 0 -41 16t-16 39q0 24 16.5 40.5t40.5 16.5h27v215v78q0 19 -13.5 32t-32.5 13q-23 0 -39 16.5t-16 39.5q0 25 16 41t39 16q82 0 130 -68q75 68 170 68q104 0 178.5 -75t74.5 -179v-47q0 -1 -1 -2t-1 -2l2 -4 q0 -105 -74.5 -179.5t-178.5 -74.5h-142v-295q0 -19 13 -32t32 -13q23 0 39.5 -17.5t16.5 -40.5t-16.5 -39t-39.5 -16q-57 0 -100 37q-47 -37 -103 -37q-23 0 -39 16t-16 39zM264 571h142q58 0 99.5 41.5t41.5 100.5v4v4v47q0 58 -41.5 99.5t-99.5 41.5q-59 0 -100.5 -41.5 t-41.5 -99.5v-47v-150z" />
<glyph unicode="Q" horiz-adv-x="778" d="M51 514q0 23 16 39t39 16h29v197q0 104 75 179t179 75t179 -75t75 -179v-193h27q25 0 41 -16t16 -39q0 -25 -16 -41t-41 -16h-27v-199q0 -69 -37 -129l23 -22q17 -17 17 -40t-17 -40t-41 -17q-22 0 -39 17l-21 20q-62 -43 -139 -43q-104 0 -179 75t-75 179v195h-29 q-23 0 -39 17t-16 40zM248 262q0 -58 41 -99.5t100 -41.5q30 0 57 12l-16 17q-17 17 -17 39.5t17 39.5t40 17t40 -17l12 -12q8 28 8 45v199h-28q-24 0 -40 16.5t-16 40.5q0 23 16.5 39t39.5 16h28v193q0 58 -41 99.5t-100 41.5t-100 -41.5t-41 -99.5v-197h28q23 0 39.5 -16 t16.5 -39t-16.5 -40t-39.5 -17h-28v-195z" />
<glyph unicode="R" horiz-adv-x="743" d="M51 61q0 24 16 41t39 17q19 0 32.5 13t13.5 32v295h-27q-25 0 -41 16t-16 39q0 24 16.5 40.5t40.5 16.5h27v215v78q0 19 -13.5 32t-32.5 13q-23 0 -39 16.5t-16 39.5q0 25 16 41t39 16q82 0 130 -68q75 68 170 68q104 0 178.5 -75t74.5 -179v-47q0 -1 -1 -2t-1 -2l2 -4 q0 -62 -27.5 -115t-74.5 -88q33 -45 33 -96v-250q0 -19 13 -32t32 -13q23 0 40 -17.5t17 -40.5t-17 -39t-40 -16q-65 0 -111.5 46t-46.5 112v250q0 19 -12 32t-31 13q-6 0 -10 2q-6 -2 -18 -2h-142v-295q0 -19 13 -32t32 -13q23 0 39.5 -17.5t16.5 -40.5t-16.5 -39 t-39.5 -16q-57 0 -100 37q-47 -37 -103 -37q-23 0 -39 16t-16 39zM264 571h142q58 0 99.5 41.5t41.5 100.5v4v4v47q0 58 -41.5 99.5t-99.5 41.5q-59 0 -100.5 -41.5t-41.5 -99.5v-47v-150z" />
<glyph unicode="S" horiz-adv-x="659" d="M51 739q0 114 80.5 194.5t194.5 82.5l2 2q20 0 33.5 13.5t13.5 33.5q0 25 17 42t42 17t42.5 -17t17.5 -42q0 -62 -39 -107q39 -45 39 -106q0 -25 -17.5 -42t-42.5 -17t-42 17t-17 42q0 19 -13.5 32.5t-33.5 14.5q-65 -2 -111.5 -49t-46.5 -111q0 -54 32 -96t83 -57l10 26 q7 23 30 33.5t46 1.5q23 -7 33.5 -30t1.5 -46l-3 -4q90 -25 147.5 -98.5t57.5 -169.5q0 -112 -78.5 -192.5t-191.5 -83.5h-2q-19 -3 -30.5 -18.5t-10.5 -35.5q3 -25 -12.5 -43.5t-40.5 -21.5h-6q-22 0 -39.5 15t-20.5 38q-1 9 -1 18q0 48 28 91q-43 47 -49 102q-3 24 12 43 t39 22q25 3 44.5 -12.5t20.5 -40.5q3 -17 19 -30q14 -11 35 -11h6q66 0 112.5 47t46.5 113q0 58 -35 102t-89 56l-9 -25q-17 -39 -57 -39q-4 0 -20 4q-23 7 -33 29.5t-2 46.5v2q-85 28 -139 100t-54 164z" />
<glyph unicode="T" horiz-adv-x="763" d="M51 827q0 80 57 137.5t136 57.5q80 0 137 -57q57 57 137 57t137.5 -58t57.5 -137q0 -23 -17 -39t-41 -16q-23 0 -39 16t-16 39q0 34 -24 58t-58 24q-32 0 -56 -24t-24 -58v-258h27q25 0 41 -16t16 -41q0 -23 -16 -39t-41 -16h-27v-293q0 -19 13 -32t32 -13 q23 0 39.5 -16.5t16.5 -41.5q0 -23 -16.5 -39t-39.5 -16q-55 0 -102 37q-43 -37 -100 -37q-23 0 -39.5 16t-16.5 39q0 25 16.5 41.5t39.5 16.5q19 0 32 13t13 32v293h-29q-23 0 -39 16t-16 39q0 25 16 41t39 16h29v258q0 34 -24 58t-58 24q-32 0 -56 -24t-24 -58 q0 -23 -16.5 -39t-41.5 -16q-23 0 -39 16t-16 39z" />
<glyph unicode="U" horiz-adv-x="811" d="M51 965q0 23 16 39t39 16q60 0 103 -37q40 37 100 37q23 0 39.5 -16t16.5 -39t-16.5 -40.5t-39.5 -17.5q-19 0 -32 -12t-13 -31v-297h29q23 0 39 -16t16 -39t-16 -40t-39 -17h-29v-195q0 -58 41.5 -99.5t100.5 -41.5q58 0 99.5 41.5t41.5 99.5v195h-29q-23 0 -39 17 t-16 40t16 39t39 16h29v297q0 19 -13 31t-32 12q-23 0 -39.5 17.5t-16.5 40.5t16.5 39t39.5 16q60 0 100 -37q43 37 103 37q23 0 39 -16t16 -39q0 -24 -16 -41t-39 -17q-19 0 -32.5 -12.5t-13.5 -30.5v-297h27q25 0 41 -16t16 -39q0 -24 -16.5 -40.5t-40.5 -16.5h-27v-215 q0 -9 -4 -21q-15 -91 -85.5 -152t-163.5 -61t-164 61t-86 152q-4 12 -4 21v215h-27q-24 0 -40.5 16.5t-16.5 40.5q0 23 16 39t41 16h27v297q0 18 -13.5 30.5t-32.5 12.5q-23 0 -39 17t-16 41z" />
<glyph unicode="V" horiz-adv-x="800" d="M51 965q0 25 16 41t39 16q56 0 103 -37q43 37 100 37q23 0 39.5 -16t16.5 -41q0 -23 -16.5 -39.5t-39.5 -16.5q-19 0 -32 -13t-13 -32q0 -2 -1 -5t-1 -5l76 -285h8q21 0 36.5 -14t18.5 -35q3 21 19 35t37 14h8l74 285q0 1 -1 4.5t-1 5.5q0 19 -13 32t-30 13 q-25 0 -41.5 16.5t-16.5 39.5q0 25 16.5 41t41.5 16q53 0 100 -37q43 37 100 37q24 0 40 -16t16 -41q0 -23 -16.5 -39.5t-39.5 -16.5q-15 0 -28 -10v-6l-86 -328q32 -16 32 -51q0 -25 -16 -41t-39 -16h-6l-84 -320q11 -18 35 -18q23 0 40 -17.5t17 -40.5t-17 -39t-40 -16 q-58 0 -101 37q-47 -37 -100 -37q-25 0 -41 16t-16 39q0 24 16.5 41t40.5 17q21 0 35 18l-84 320h-6q-24 0 -41 16.5t-17 40.5q0 34 35 51l-88 328v6q-13 10 -29 10q-23 0 -39 16.5t-16 39.5zM367 461l34 -129l33 129q-30 13 -33 45q-3 -31 -34 -45z" />
<glyph unicode="W" horiz-adv-x="1222" d="M51 965q0 25 16 41t39 16q56 0 103 -37q43 37 100 37q23 0 39.5 -16t16.5 -41q0 -23 -16.5 -39.5t-39.5 -16.5q-19 0 -32 -13t-13 -32q0 -2 -1 -5t-1 -5l76 -285h8q23 0 39 -16t16 -39q0 -39 -34 -53l34 -129l148 555q-15 22 -39 22q-23 0 -39 16.5t-16 39.5q0 25 16 41 t39 16q55 0 102 -37q43 37 101 37q23 0 39 -16t16 -41q0 -23 -16 -39.5t-39 -16.5q-26 0 -37 -22l147 -555l33 129q-35 14 -35 53q0 23 16.5 39t39.5 16h8l76 285q0 1 -1.5 4.5t-1.5 5.5q0 19 -13 32t-32 13q-23 0 -39 16.5t-16 39.5q0 25 16 41t39 16q58 0 101 -37 q47 37 102 37q23 0 39 -16t16 -41q0 -23 -16 -39.5t-39 -16.5q-16 0 -29 -10v-6l-88 -328q35 -17 35 -51q0 -25 -16 -41t-39 -16h-6l-86 -320q14 -18 37 -18t39 -17t16 -41q0 -23 -16 -39t-39 -16q-58 0 -101 37q-47 -37 -102 -37q-23 0 -39 16t-16 39q0 24 16 41t39 17 t37 18l-146 551l-145 -551q11 -18 35 -18q23 0 40 -17.5t17 -40.5t-17 -39t-40 -16q-58 0 -101 37q-47 -37 -100 -37q-25 0 -41 16t-16 39q0 24 16.5 41t40.5 17q21 0 35 18l-84 320h-6q-24 0 -41 16.5t-17 40.5q0 34 35 51l-88 328v6q-13 10 -29 10q-23 0 -39 16.5 t-16 39.5z" />
<glyph unicode="X" horiz-adv-x="735" d="M51 59q0 25 16 41.5t39 16.5q29 0 41 24l37 82l2 2l119 289l-119 287l-2 2l-39 86q-11 22 -39 22q-23 0 -39 16.5t-16 39.5t16 40t39 17q58 0 103 -39q42 39 100 39q23 0 39.5 -17t16.5 -40t-16.5 -39.5t-39.5 -16.5q-24 0 -37 -20l97 -236l94 234q-13 22 -37 22 q-23 0 -40 16.5t-17 39.5t17 40t40 17q58 0 100 -39q45 39 101 39q23 0 40 -17t17 -40t-17 -39.5t-40 -16.5q-25 0 -39 -24l-37 -82l-119 -291l119 -291l37 -84q13 -22 39 -22q23 0 40 -16.5t17 -41.5q0 -23 -17 -39t-40 -16q-56 0 -101 39q-45 -39 -100 -39q-23 0 -40 16 t-17 39q0 25 16.5 41.5t40.5 16.5t37 20l-94 236l-97 -236q13 -20 37 -20q23 0 39.5 -16.5t16.5 -41.5q0 -23 -16.5 -39t-39.5 -16q-58 0 -100 39q-45 -39 -103 -39q-23 0 -39 16t-16 39z" />
<glyph unicode="Y" horiz-adv-x="735" d="M51 965q0 23 16 40t39 17q58 0 103 -39q42 39 100 39q23 0 39.5 -17t16.5 -40t-16.5 -39.5t-39.5 -16.5q-24 0 -37 -20l97 -236l94 234q-13 22 -37 22q-23 0 -40 16.5t-17 39.5t17 40t40 17q58 0 100 -39q45 39 101 39q23 0 40 -17t17 -40t-17 -39.5t-40 -16.5 q-25 0 -39 -24l-37 -82l-96 -234q23 -1 38 -17.5t15 -39.5t-16 -39t-39 -16h-29v-291v-2q0 -19 13 -32t32 -13q23 0 39 -16.5t16 -41.5q0 -23 -16 -39t-39 -16q-57 0 -100 37q-47 -37 -103 -37q-23 0 -39 16t-16 39q0 25 16 41.5t39 16.5q19 0 32 13t13 32v2v291h-28 q-23 0 -39.5 16t-16.5 39t16 39t38 18l-95 230l-2 2l-39 86q-11 22 -39 22q-23 0 -39 16.5t-16 39.5z" />
<glyph unicode="Z" horiz-adv-x="751" d="M51 842q0 71 45 119q-45 48 -45 116q0 23 16 39.5t39 16.5q25 0 41.5 -16.5t16.5 -39.5q0 -25 17.5 -43t43.5 -18h420q33 0 49 -29q9 -14 9 -27q0 -15 -11 -28l-239 -402h4q25 0 41 -16t16 -39q0 -24 -16.5 -40.5t-40.5 -16.5h-72l-178 -295h321q25 0 42.5 18t17.5 43 q0 23 17 40.5t40 17.5t39 -17t16 -41q0 -68 -45 -116q45 -48 45 -117q0 -23 -16 -40t-39 -17t-40 17t-17 40q0 25 -17.5 43t-42.5 18h-422q-14 0 -27.5 7.5t-19.5 19.5q-8 15 -8.5 29t8.5 28l195 322h-8q-23 0 -40.5 17t-17.5 40t17 39t41 16h76l223 373h-320 q-26 0 -43.5 -17.5t-17.5 -43.5q0 -23 -16.5 -39.5t-41.5 -16.5q-23 0 -39 16.5t-16 39.5z" />
<glyph unicode="a" horiz-adv-x="800" d="M51 61q0 24 16 41t39 17q16 0 29 10v6l86 322h-2q-23 0 -39 16t-16 41q0 23 16 39t39 16h31l86 320q-13 20 -37 20q-23 0 -39 16.5t-16 39.5q0 25 16 41t39 16q55 0 102 -37q43 37 101 37q23 0 39 -16t16 -41q0 -23 -16 -39.5t-39 -16.5q-24 0 -37 -20l86 -320h31 q23 0 39 -16t16 -39q0 -25 -16 -41t-39 -16h-2l86 -322v-6q13 -10 28 -10q23 0 39.5 -17.5t16.5 -40.5t-16.5 -39t-39.5 -16q-57 0 -100 37q-47 -37 -100 -37q-25 0 -41.5 16t-16.5 39q0 24 17 41t41 17q19 0 31 13t12 32q0 1 1 4t1 4l-76 285h-125l-76 -283q0 -2 1 -5.5 t1 -4.5q0 -19 13 -32t32 -13q23 0 39.5 -17.5t16.5 -40.5t-16.5 -39t-39.5 -16q-57 0 -100 37q-47 -37 -103 -37q-23 0 -39 16t-16 39zM367 569h67l-33 127z" />
<glyph unicode="b" d="M51 61q0 24 16 41t39 17q19 0 32.5 13t13.5 32v295h-27q-25 0 -41 16t-16 39q0 24 16.5 40.5t40.5 16.5h27v215v78q0 19 -13.5 32t-32.5 13q-23 0 -39 16.5t-16 39.5q0 25 16 41t39 16q82 0 130 -68q75 68 170 68q104 0 178.5 -75t74.5 -179v-47q0 -1 -1 -2t-1 -2l2 -4 q0 -120 -96 -199q96 -79 96 -197l-2 -4q0 -1 1 -3t1 -3v-47q0 -104 -74.5 -178t-178.5 -74q-98 0 -170 66q-48 -68 -130 -68q-23 0 -39 16t-16 39zM264 260q0 -58 41.5 -99.5t100.5 -41.5q58 0 99.5 41.5t41.5 99.5v47v6v4q0 59 -41.5 100.5t-99.5 41.5h-142v-199zM264 571 h142q58 0 99.5 41.5t41.5 100.5v4v4v47q0 58 -41.5 99.5t-99.5 41.5q-59 0 -100.5 -41.5t-41.5 -99.5v-47v-150z" />
<glyph unicode="c" horiz-adv-x="694" d="M51 514q0 23 16 39t39 16h29v197q0 104 75 179t179 75t179 -75t75 -179q0 -23 -17 -40t-40 -17t-39.5 17t-16.5 40q0 58 -41 99.5t-100 41.5t-100 -41.5t-41 -99.5v-197h28q23 0 39.5 -16t16.5 -39t-16.5 -40t-39.5 -17h-28v-195q0 -58 41 -99.5t100 -41.5t100 41.5 t41 99.5q0 23 16.5 39t39.5 16t40 -16t17 -39q0 -104 -75 -179t-179 -75t-179 75t-75 179v195h-29q-23 0 -39 17t-16 40z" />
<glyph unicode="d" d="M51 61q0 25 16 41.5t39 16.5q19 0 32.5 13t13.5 32v125v2v166h-27q-25 0 -41 16t-16 39q0 25 16 41t41 16h27v168v127q0 19 -13.5 32t-32.5 13q-23 0 -39 16.5t-16 39.5t16 40t39 17q85 0 132 -70q72 66 168 66q104 0 178.5 -74t74.5 -180v-504q0 -104 -74.5 -178 t-178.5 -74q-98 0 -170 66q-45 -68 -130 -68q-23 0 -39 16t-16 39zM264 260q0 -58 41.5 -98.5t100.5 -40.5t100 40.5t41 98.5v504q0 58 -41.5 99.5t-99.5 41.5q-59 0 -100.5 -41.5t-41.5 -99.5v-195h29q23 0 39 -16t16 -41q0 -23 -16 -39t-39 -16h-29v-197z" />
<glyph unicode="e" d="M51 61q0 25 16 41.5t39 16.5q19 0 32.5 13t13.5 32v125v2v166h-27q-25 0 -41 16t-16 39q0 25 16 41t41 16h27v168v127q0 19 -13.5 32t-32.5 13q-23 0 -39 16.5t-16 39.5t16 40t39 17q85 0 132 -70q72 66 168 66q104 0 178.5 -74t74.5 -180q0 -23 -16 -39t-41 -16 q-23 0 -39 16t-16 39q0 58 -41.5 99.5t-99.5 41.5q-59 0 -100.5 -41.5t-41.5 -99.5v-195h234q24 0 40.5 -16.5t16.5 -40.5q0 -23 -17 -39t-40 -16h-234v-197q0 -58 41.5 -98.5t100.5 -40.5t100 40.5t41 98.5q0 25 16 41t39 16q25 0 41 -16t16 -41q0 -104 -74.5 -178 t-178.5 -74q-98 0 -170 66q-45 -68 -130 -68q-23 0 -39 16t-16 39z" />
<glyph unicode="f" d="M51 61q0 25 16.5 41.5t41.5 16.5q17 0 30 13t13 32v125v2v166h-27q-25 0 -41 16t-16 39q0 25 16 41t41 16h27v168v127q0 19 -13.5 32t-32.5 13q-23 0 -39 16.5t-16 39.5t16 40t39 17q85 0 132 -70q72 66 168 66q104 0 178.5 -74t74.5 -180q0 -23 -16 -39t-41 -16 q-23 0 -39 16t-16 39q0 58 -41.5 99.5t-99.5 41.5q-59 0 -100.5 -41.5t-41.5 -99.5v-195h234q24 0 40.5 -16.5t16.5 -40.5q0 -23 -17 -39t-40 -16h-234v-197v-96q0 -19 13 -32t32 -13q23 0 39.5 -16.5t16.5 -41.5q0 -23 -16.5 -39t-39.5 -16q-57 0 -100 37q-47 -37 -100 -37 q-25 0 -41.5 16t-16.5 39z" />
<glyph unicode="g" d="M51 262v504q0 104 75 179t179 75t179 -75t75 -179q0 -23 -17 -40t-40 -17t-39.5 17t-16.5 40q0 58 -41 99.5t-100 41.5t-100 -41.5t-41 -99.5v-504q0 -58 41 -99.5t100 -41.5t100 41.5t41 99.5q0 5 3 8q-3 6 -3 11q0 19 -13 32t-32 13q-23 0 -40 16t-17 39 q0 24 16.5 40.5t40.5 16.5q58 0 101 -37q43 37 100 37q25 0 41 -16t16 -41q0 -23 -16 -39t-41 -16q-19 0 -31 -13t-12 -32q0 -2 -1 -5.5t-1 -5.5q0 -1 1 -4t1 -4q0 -104 -75 -179t-179 -75t-179 75t-75 179z" />
<glyph unicode="h" horiz-adv-x="735" d="M51 61q0 25 16 41.5t39 16.5q19 0 32.5 13t13.5 32v293h-29q-24 0 -40.5 16.5t-16.5 40.5q0 23 16 39t41 16h29v295q0 19 -13.5 32t-32.5 13q-23 0 -39 16.5t-16 39.5t16 40t39 17q56 0 103 -37q43 37 100 37q23 0 39.5 -17t16.5 -40t-16.5 -39.5t-39.5 -16.5 q-19 0 -32 -13t-13 -32v-295h207v295q0 19 -13 32t-32 13q-23 0 -39 16.5t-16 39.5t16 40t39 17q57 0 100 -37q47 37 101 37q24 0 40.5 -16.5t16.5 -40.5q0 -23 -16 -39.5t-41 -16.5q-19 0 -31 -13t-12 -32v-295h28q23 0 39.5 -16t16.5 -39t-16.5 -40t-39.5 -17h-28v-293 q0 -19 12 -32t31 -13q25 0 41 -16.5t16 -41.5q0 -23 -16 -39t-41 -16q-54 0 -101 37q-43 -37 -100 -37q-23 0 -39 16t-16 39q0 25 16 41.5t39 16.5q19 0 32 13t13 32v293h-207v-293q0 -19 13 -32t32 -13q23 0 39.5 -16.5t16.5 -41.5q0 -23 -16.5 -39t-39.5 -16 q-57 0 -100 37q-47 -37 -103 -37q-23 0 -39 16t-16 39z" />
<glyph unicode="i" horiz-adv-x="415" d="M51 61q0 25 16 41.5t39 16.5q19 0 32.5 13t13.5 32v293h-27q-25 0 -41 16t-16 39q0 25 16 41t41 16h27v295q0 19 -13.5 32t-32.5 13q-23 0 -39 16.5t-16 39.5t16 40t39 17q56 0 103 -37q43 37 100 37q23 0 39.5 -17t16.5 -40t-16.5 -39.5t-39.5 -16.5q-19 0 -32 -13 t-13 -32v-295h29q23 0 39 -16t16 -41q0 -23 -16 -39t-39 -16h-29v-293q0 -19 13 -32t32 -13q23 0 39.5 -16.5t16.5 -41.5q0 -23 -16.5 -39t-39.5 -16q-57 0 -100 37q-47 -37 -103 -37q-23 0 -39 16t-16 39z" />
<glyph unicode="j" horiz-adv-x="811" d="M51 377q0 23 16 39t39 16q56 0 103 -37q43 37 100 37q23 0 39.5 -16t16.5 -39q0 -25 -16.5 -41.5t-39.5 -16.5q-19 0 -32 -13t-13 -32q0 -4 -2 -6q2 -2 2 -8q0 -58 41.5 -99.5t100.5 -41.5q58 0 99.5 41.5t41.5 99.5v195h-29q-23 0 -39 17t-16 40t16 39t39 16h29v297 q0 19 -13 31t-32 12q-23 0 -39.5 17.5t-16.5 40.5t16.5 39t39.5 16q60 0 100 -37q43 37 103 37q23 0 39 -16t16 -39q0 -24 -16 -41t-39 -17q-19 0 -32.5 -12.5t-13.5 -30.5v-297h27q25 0 41 -16t16 -39q0 -24 -16.5 -40.5t-40.5 -16.5h-27v-215q0 -9 -4 -21 q-15 -91 -85.5 -152t-163.5 -61q-104 0 -179 75t-75 179q0 2 1 4.5t1 3.5t-1 3t-1 3q0 19 -13.5 32t-32.5 13q-23 0 -39 16.5t-16 41.5z" />
<glyph unicode="k" horiz-adv-x="763" d="M51 61q0 25 16 41.5t39 16.5q19 0 32.5 13t13.5 32v293h-27q-25 0 -41 16t-16 39q0 25 16 41t41 16h27v295q0 19 -13.5 32t-32.5 13q-23 0 -39 16.5t-16 39.5t16 40t39 17q56 0 103 -37q43 37 100 37q23 0 39.5 -17t16.5 -40t-16.5 -39.5t-39.5 -16.5q-19 0 -32 -13 t-13 -32v-289l221 320q-14 14 -30 14q-23 0 -40.5 16.5t-17.5 39.5t17.5 40t40.5 17q53 0 100 -37q47 37 100 37q23 0 40.5 -17t17.5 -40t-17.5 -39.5t-40.5 -16.5q-21 0 -34 -16v-2l-224 -322h37q23 0 39 -16t16 -41q0 -23 -16 -39t-39 -16h-35l222 -320q13 -16 34 -16 q23 0 40.5 -17.5t17.5 -40.5t-17 -39t-41 -16q-57 0 -100 37q-43 -37 -100 -37q-24 0 -41 16t-17 39t17.5 40.5t40.5 17.5q16 0 30 14l-221 320v-291q0 -19 13 -32t32 -13q23 0 39.5 -16.5t16.5 -41.5q0 -23 -16.5 -39t-39.5 -16q-57 0 -100 37q-47 -37 -103 -37 q-23 0 -39 16t-16 39z" />
<glyph unicode="l" horiz-adv-x="811" d="M51 61q0 24 16 41t39 17q19 0 32.5 13t13.5 32v78v215h-27q-25 0 -41 16t-16 41q0 23 16 39t41 16h27v295q0 19 -13.5 32t-32.5 13q-23 0 -39 16.5t-16 39.5q0 25 16 41t39 16q56 0 103 -37q43 37 100 37q23 0 39.5 -16t16.5 -41q0 -23 -16.5 -39.5t-39.5 -16.5 q-19 0 -32 -13t-13 -32v-295h29q23 0 39 -16t16 -39q0 -25 -16 -41t-39 -16h-29v-150v-45q0 -58 41.5 -99.5t100.5 -41.5q58 0 99.5 41.5t41.5 99.5q0 4 2 6q-2 4 -2 8q0 19 -13 32.5t-32 13.5q-23 0 -39.5 16t-16.5 39t16.5 40t39.5 17q57 0 100 -37q47 37 103 37 q23 0 39 -17t16 -40t-16 -39t-39 -16q-19 0 -32.5 -13.5t-13.5 -32.5q0 -1 -1 -3.5t-1 -4.5q0 -1 1 -3t1 -3q0 -104 -74.5 -179t-178.5 -75q-96 0 -168 66q-48 -68 -132 -68q-23 0 -39 16t-16 39z" />
<glyph unicode="m" horiz-adv-x="913" d="M51 61q0 25 16 41.5t39 16.5q19 0 32.5 13t13.5 32v293h-27q-25 0 -41 16t-16 39q0 25 16 41t41 16h27v295q0 19 -13.5 32t-32.5 13q-23 0 -39 16.5t-16 39.5t16 40t39 17q56 0 103 -37q43 37 100 37q23 0 39.5 -17t16.5 -40t-16.5 -39.5t-39.5 -16.5q-25 0 -39 -24 l185 -445l186 449q-13 20 -35 20q-24 0 -40.5 16.5t-16.5 39.5q0 24 16.5 40.5t40.5 16.5q54 0 101 -37q43 37 100 37q23 0 39 -17t16 -40t-16 -39.5t-39 -16.5q-19 0 -32 -13t-13 -32v-295h29q23 0 39 -16t16 -41q0 -23 -16 -39t-39 -16h-29v-293q0 -19 13 -32t32 -13 q23 0 39 -16.5t16 -41.5q0 -23 -16 -39t-39 -16q-57 0 -100 37q-47 -37 -101 -37q-25 0 -41 16t-16 39q0 25 16 41.5t41 16.5q19 0 31 13t12 32v450l-133 -319q14 -27 41 -27q23 0 39 -16t16 -39q0 -25 -16 -41t-39 -16q-55 0 -102 37q-43 -37 -101 -37q-23 0 -39 16t-16 41 q0 23 16 39t39 16q28 0 41 27l-131 311v-442q0 -19 13 -32t32 -13q23 0 39.5 -16.5t16.5 -41.5q0 -23 -16.5 -39t-39.5 -16q-57 0 -100 37q-47 -37 -103 -37q-23 0 -39 16t-16 39z" />
<glyph unicode="n" horiz-adv-x="759" d="M51 61q0 25 16 41.5t39 16.5q19 0 32.5 13t13.5 32v293h-46q-23 0 -39 16t-16 39q0 25 16 41t39 16h46v295q0 19 -13.5 32t-32.5 13q-23 0 -39 16.5t-16 39.5t16 40t39 17q56 0 103 -37q43 37 100 37q23 0 39.5 -17t16.5 -40t-16.5 -39.5t-39.5 -16.5q-25 0 -39 -24 l226 -541v520q0 19 -13 32t-32 13q-23 0 -39.5 16.5t-16.5 39.5t16.5 40t39.5 17q55 0 102 -37q43 37 100 37q23 0 39.5 -17t16.5 -40t-16.5 -39.5t-39.5 -16.5q-19 0 -32 -13t-13 -32v-295h45q23 0 39.5 -16.5t16.5 -40.5q0 -23 -16.5 -39t-39.5 -16h-45v-293q0 -19 13 -32 t32 -13q23 0 39.5 -16.5t16.5 -41.5q0 -23 -16.5 -39t-39.5 -16q-57 0 -100 37q-47 -37 -102 -37q-23 0 -39.5 16t-16.5 39q0 25 16.5 41.5t39.5 16.5q10 0 16 2l-203 485v-92v-2v-348q0 -19 13 -32t32 -13q23 0 39.5 -16.5t16.5 -41.5q0 -23 -16.5 -39t-39.5 -16 q-57 0 -100 37q-47 -37 -103 -37q-23 0 -39 16t-16 39z" />
<glyph unicode="o" horiz-adv-x="778" d="M51 514q0 23 16 39t39 16h29v197q0 104 75 179t179 75t179 -75t75 -179v-193h27q25 0 41 -16t16 -39q0 -25 -16 -41t-41 -16h-27v-199q0 -104 -75 -179t-179 -75t-179 75t-75 179v195h-29q-23 0 -39 17t-16 40zM248 262q0 -58 41 -99.5t100 -41.5t100 41.5t41 99.5v199 h-28q-24 0 -40 16.5t-16 40.5q0 23 16.5 39t39.5 16h28v193q0 58 -41 99.5t-100 41.5t-100 -41.5t-41 -99.5v-197h28q23 0 39.5 -16t16.5 -39t-16.5 -40t-39.5 -17h-28v-195z" />
<glyph unicode="p" d="M51 61q0 24 16 41t39 17q19 0 32.5 13t13.5 32v295h-27q-25 0 -41 16t-16 39q0 24 16.5 40.5t40.5 16.5h27v215v78q0 19 -13.5 32t-32.5 13q-23 0 -39 16.5t-16 39.5q0 25 16 41t39 16q82 0 130 -68q75 68 170 68q104 0 178.5 -75t74.5 -179v-47q0 -1 -1 -2t-1 -2l2 -4 q0 -105 -74.5 -179.5t-178.5 -74.5h-142v-295q0 -19 13 -32t32 -13q23 0 39.5 -17.5t16.5 -40.5t-16.5 -39t-39.5 -16q-57 0 -100 37q-47 -37 -103 -37q-23 0 -39 16t-16 39zM264 571h142q58 0 99.5 41.5t41.5 100.5v4v4v47q0 58 -41.5 99.5t-99.5 41.5q-59 0 -100.5 -41.5 t-41.5 -99.5v-47v-150z" />
<glyph unicode="q" horiz-adv-x="778" d="M51 514q0 23 16 39t39 16h29v197q0 104 75 179t179 75t179 -75t75 -179v-193h27q25 0 41 -16t16 -39q0 -25 -16 -41t-41 -16h-27v-199q0 -69 -37 -129l23 -22q17 -17 17 -40t-17 -40t-41 -17q-22 0 -39 17l-21 20q-62 -43 -139 -43q-104 0 -179 75t-75 179v195h-29 q-23 0 -39 17t-16 40zM248 262q0 -58 41 -99.5t100 -41.5q30 0 57 12l-16 17q-17 17 -17 39.5t17 39.5t40 17t40 -17l12 -12q8 28 8 45v199h-28q-24 0 -40 16.5t-16 40.5q0 23 16.5 39t39.5 16h28v193q0 58 -41 99.5t-100 41.5t-100 -41.5t-41 -99.5v-197h28q23 0 39.5 -16 t16.5 -39t-16.5 -40t-39.5 -17h-28v-195z" />
<glyph unicode="r" horiz-adv-x="743" d="M51 61q0 24 16 41t39 17q19 0 32.5 13t13.5 32v295h-27q-25 0 -41 16t-16 39q0 24 16.5 40.5t40.5 16.5h27v215v78q0 19 -13.5 32t-32.5 13q-23 0 -39 16.5t-16 39.5q0 25 16 41t39 16q82 0 130 -68q75 68 170 68q104 0 178.5 -75t74.5 -179v-47q0 -1 -1 -2t-1 -2l2 -4 q0 -62 -27.5 -115t-74.5 -88q33 -45 33 -96v-250q0 -19 13 -32t32 -13q23 0 40 -17.5t17 -40.5t-17 -39t-40 -16q-65 0 -111.5 46t-46.5 112v250q0 19 -12 32t-31 13q-6 0 -10 2q-6 -2 -18 -2h-142v-295q0 -19 13 -32t32 -13q23 0 39.5 -17.5t16.5 -40.5t-16.5 -39 t-39.5 -16q-57 0 -100 37q-47 -37 -103 -37q-23 0 -39 16t-16 39zM264 571h142q58 0 99.5 41.5t41.5 100.5v4v4v47q0 58 -41.5 99.5t-99.5 41.5q-59 0 -100.5 -41.5t-41.5 -99.5v-47v-150z" />
<glyph unicode="s" horiz-adv-x="659" d="M51 739q0 114 80.5 194.5t194.5 82.5l2 2q20 0 33.5 13.5t13.5 33.5q0 25 17 42t42 17t42.5 -17t17.5 -42q0 -62 -39 -107q39 -45 39 -106q0 -25 -17.5 -42t-42.5 -17t-42 17t-17 42q0 19 -13.5 32.5t-33.5 14.5q-65 -2 -111.5 -49t-46.5 -111q0 -54 32 -96t83 -57l10 26 q7 23 30 33.5t46 1.5q23 -7 33.5 -30t1.5 -46l-3 -4q90 -25 147.5 -98.5t57.5 -169.5q0 -112 -78.5 -192.5t-191.5 -83.5h-2q-19 -3 -30.5 -18.5t-10.5 -35.5q3 -25 -12.5 -43.5t-40.5 -21.5h-6q-22 0 -39.5 15t-20.5 38q-1 9 -1 18q0 48 28 91q-43 47 -49 102q-3 24 12 43 t39 22q25 3 44.5 -12.5t20.5 -40.5q3 -17 19 -30q14 -11 35 -11h6q66 0 112.5 47t46.5 113q0 58 -35 102t-89 56l-9 -25q-17 -39 -57 -39q-4 0 -20 4q-23 7 -33 29.5t-2 46.5v2q-85 28 -139 100t-54 164z" />
<glyph unicode="t" horiz-adv-x="763" d="M51 827q0 80 57 137.5t136 57.5q80 0 137 -57q57 57 137 57t137.5 -58t57.5 -137q0 -23 -17 -39t-41 -16q-23 0 -39 16t-16 39q0 34 -24 58t-58 24q-32 0 -56 -24t-24 -58v-258h27q25 0 41 -16t16 -41q0 -23 -16 -39t-41 -16h-27v-293q0 -19 13 -32t32 -13 q23 0 39.5 -16.5t16.5 -41.5q0 -23 -16.5 -39t-39.5 -16q-55 0 -102 37q-43 -37 -100 -37q-23 0 -39.5 16t-16.5 39q0 25 16.5 41.5t39.5 16.5q19 0 32 13t13 32v293h-29q-23 0 -39 16t-16 39q0 25 16 41t39 16h29v258q0 34 -24 58t-58 24q-32 0 -56 -24t-24 -58 q0 -23 -16.5 -39t-41.5 -16q-23 0 -39 16t-16 39z" />
<glyph unicode="u" horiz-adv-x="811" d="M51 965q0 23 16 39t39 16q60 0 103 -37q40 37 100 37q23 0 39.5 -16t16.5 -39t-16.5 -40.5t-39.5 -17.5q-19 0 -32 -12t-13 -31v-297h29q23 0 39 -16t16 -39t-16 -40t-39 -17h-29v-195q0 -58 41.5 -99.5t100.5 -41.5q58 0 99.5 41.5t41.5 99.5v195h-29q-23 0 -39 17 t-16 40t16 39t39 16h29v297q0 19 -13 31t-32 12q-23 0 -39.5 17.5t-16.5 40.5t16.5 39t39.5 16q60 0 100 -37q43 37 103 37q23 0 39 -16t16 -39q0 -24 -16 -41t-39 -17q-19 0 -32.5 -12.5t-13.5 -30.5v-297h27q25 0 41 -16t16 -39q0 -24 -16.5 -40.5t-40.5 -16.5h-27v-215 q0 -9 -4 -21q-15 -91 -85.5 -152t-163.5 -61t-164 61t-86 152q-4 12 -4 21v215h-27q-24 0 -40.5 16.5t-16.5 40.5q0 23 16 39t41 16h27v297q0 18 -13.5 30.5t-32.5 12.5q-23 0 -39 17t-16 41z" />
<glyph unicode="v" horiz-adv-x="800" d="M51 965q0 25 16 41t39 16q56 0 103 -37q43 37 100 37q23 0 39.5 -16t16.5 -41q0 -23 -16.5 -39.5t-39.5 -16.5q-19 0 -32 -13t-13 -32q0 -2 -1 -5t-1 -5l76 -285h8q21 0 36.5 -14t18.5 -35q3 21 19 35t37 14h8l74 285q0 1 -1 4.5t-1 5.5q0 19 -13 32t-30 13 q-25 0 -41.5 16.5t-16.5 39.5q0 25 16.5 41t41.5 16q53 0 100 -37q43 37 100 37q24 0 40 -16t16 -41q0 -23 -16.5 -39.5t-39.5 -16.5q-15 0 -28 -10v-6l-86 -328q32 -16 32 -51q0 -25 -16 -41t-39 -16h-6l-84 -320q11 -18 35 -18q23 0 40 -17.5t17 -40.5t-17 -39t-40 -16 q-58 0 -101 37q-47 -37 -100 -37q-25 0 -41 16t-16 39q0 24 16.5 41t40.5 17q21 0 35 18l-84 320h-6q-24 0 -41 16.5t-17 40.5q0 34 35 51l-88 328v6q-13 10 -29 10q-23 0 -39 16.5t-16 39.5zM367 461l34 -129l33 129q-30 13 -33 45q-3 -31 -34 -45z" />
<glyph unicode="w" horiz-adv-x="1222" d="M51 965q0 25 16 41t39 16q56 0 103 -37q43 37 100 37q23 0 39.5 -16t16.5 -41q0 -23 -16.5 -39.5t-39.5 -16.5q-19 0 -32 -13t-13 -32q0 -2 -1 -5t-1 -5l76 -285h8q23 0 39 -16t16 -39q0 -39 -34 -53l34 -129l148 555q-15 22 -39 22q-23 0 -39 16.5t-16 39.5q0 25 16 41 t39 16q55 0 102 -37q43 37 101 37q23 0 39 -16t16 -41q0 -23 -16 -39.5t-39 -16.5q-26 0 -37 -22l147 -555l33 129q-35 14 -35 53q0 23 16.5 39t39.5 16h8l76 285q0 1 -1.5 4.5t-1.5 5.5q0 19 -13 32t-32 13q-23 0 -39 16.5t-16 39.5q0 25 16 41t39 16q58 0 101 -37 q47 37 102 37q23 0 39 -16t16 -41q0 -23 -16 -39.5t-39 -16.5q-16 0 -29 -10v-6l-88 -328q35 -17 35 -51q0 -25 -16 -41t-39 -16h-6l-86 -320q14 -18 37 -18t39 -17t16 -41q0 -23 -16 -39t-39 -16q-58 0 -101 37q-47 -37 -102 -37q-23 0 -39 16t-16 39q0 24 16 41t39 17 t37 18l-146 551l-145 -551q11 -18 35 -18q23 0 40 -17.5t17 -40.5t-17 -39t-40 -16q-58 0 -101 37q-47 -37 -100 -37q-25 0 -41 16t-16 39q0 24 16.5 41t40.5 17q21 0 35 18l-84 320h-6q-24 0 -41 16.5t-17 40.5q0 34 35 51l-88 328v6q-13 10 -29 10q-23 0 -39 16.5 t-16 39.5z" />
<glyph unicode="x" horiz-adv-x="735" d="M51 59q0 25 16 41.5t39 16.5q29 0 41 24l37 82l2 2l119 289l-119 287l-2 2l-39 86q-11 22 -39 22q-23 0 -39 16.5t-16 39.5t16 40t39 17q58 0 103 -39q42 39 100 39q23 0 39.5 -17t16.5 -40t-16.5 -39.5t-39.5 -16.5q-24 0 -37 -20l97 -236l94 234q-13 22 -37 22 q-23 0 -40 16.5t-17 39.5t17 40t40 17q58 0 100 -39q45 39 101 39q23 0 40 -17t17 -40t-17 -39.5t-40 -16.5q-25 0 -39 -24l-37 -82l-119 -291l119 -291l37 -84q13 -22 39 -22q23 0 40 -16.5t17 -41.5q0 -23 -17 -39t-40 -16q-56 0 -101 39q-45 -39 -100 -39q-23 0 -40 16 t-17 39q0 25 16.5 41.5t40.5 16.5t37 20l-94 236l-97 -236q13 -20 37 -20q23 0 39.5 -16.5t16.5 -41.5q0 -23 -16.5 -39t-39.5 -16q-58 0 -100 39q-45 -39 -103 -39q-23 0 -39 16t-16 39z" />
<glyph unicode="y" horiz-adv-x="735" d="M51 965q0 23 16 40t39 17q58 0 103 -39q42 39 100 39q23 0 39.5 -17t16.5 -40t-16.5 -39.5t-39.5 -16.5q-24 0 -37 -20l97 -236l94 234q-13 22 -37 22q-23 0 -40 16.5t-17 39.5t17 40t40 17q58 0 100 -39q45 39 101 39q23 0 40 -17t17 -40t-17 -39.5t-40 -16.5 q-25 0 -39 -24l-37 -82l-96 -234q23 -1 38 -17.5t15 -39.5t-16 -39t-39 -16h-29v-291v-2q0 -19 13 -32t32 -13q23 0 39 -16.5t16 -41.5q0 -23 -16 -39t-39 -16q-57 0 -100 37q-47 -37 -103 -37q-23 0 -39 16t-16 39q0 25 16 41.5t39 16.5q19 0 32 13t13 32v2v291h-28 q-23 0 -39.5 16t-16.5 39t16 39t38 18l-95 230l-2 2l-39 86q-11 22 -39 22q-23 0 -39 16.5t-16 39.5z" />
<glyph unicode="z" horiz-adv-x="751" d="M51 842q0 71 45 119q-45 48 -45 116q0 23 16 39.5t39 16.5q25 0 41.5 -16.5t16.5 -39.5q0 -25 17.5 -43t43.5 -18h420q33 0 49 -29q9 -14 9 -27q0 -15 -11 -28l-239 -402h4q25 0 41 -16t16 -39q0 -24 -16.5 -40.5t-40.5 -16.5h-72l-178 -295h321q25 0 42.5 18t17.5 43 q0 23 17 40.5t40 17.5t39 -17t16 -41q0 -68 -45 -116q45 -48 45 -117q0 -23 -16 -40t-39 -17t-40 17t-17 40q0 25 -17.5 43t-42.5 18h-422q-14 0 -27.5 7.5t-19.5 19.5q-8 15 -8.5 29t8.5 28l195 322h-8q-23 0 -40.5 17t-17.5 40t17 39t41 16h76l223 373h-320 q-26 0 -43.5 -17.5t-17.5 -43.5q0 -23 -16.5 -39.5t-41.5 -16.5q-23 0 -39 16.5t-16 39.5z" />
<glyph unicode="&#x2000;" horiz-adv-x="566" />
<glyph unicode="&#x2001;" horiz-adv-x="1133" />
<glyph unicode="&#x2002;" horiz-adv-x="566" />
<glyph unicode="&#x2003;" horiz-adv-x="1133" />
<glyph unicode="&#x2004;" horiz-adv-x="377" />
<glyph unicode="&#x2005;" horiz-adv-x="283" />
<glyph unicode="&#x2006;" horiz-adv-x="188" />
<glyph unicode="&#x2007;" horiz-adv-x="188" />
<glyph unicode="&#x2008;" horiz-adv-x="141" />
<glyph unicode="&#x2009;" horiz-adv-x="226" />
<glyph unicode="&#x200a;" horiz-adv-x="62" />
<glyph unicode="&#x202f;" horiz-adv-x="226" />
<glyph unicode="&#x205f;" horiz-adv-x="283" />
<glyph unicode="&#xe000;" horiz-adv-x="1024" d="M0 0v1024h1024v-1024h-1024z" />
</font>
</defs>
</svg>
